<?xml version="1.0" encoding="UTF-8" standalone="no"?>
<!-- Created with Inkscape (http://www.inkscape.org/) -->
<svg xmlns:dc="http://purl.org/dc/elements/1.1/" xmlns:cc="http://creativecommons.org/ns#" xmlns:rdf="http://www.w3.org/1999/02/22-rdf-syntax-ns#" xmlns:svg="http://www.w3.org/2000/svg" xmlns="http://www.w3.org/2000/svg" xmlns:sodipodi="http://sodipodi.sourceforge.net/DTD/sodipodi-0.dtd" xmlns:inkscape="http://www.inkscape.org/namespaces/inkscape" width="305" height="305" viewBox="0 0 80.69791480986534 80.69791894694912" version="1.1" id="svg2224" inkscape:version="0.92.3 (2405546, 2018-03-11)" sodipodi:docname="旧党徽单体.svg">
  <defs id="defs2218"/>
  <sodipodi:namedview id="base" pagecolor="#ffffff" bordercolor="#666666" borderopacity="1.0" inkscape:pageopacity="0.0" inkscape:pageshadow="2" inkscape:zoom="0.9899494928776661" inkscape:cx="171.5836227100868" inkscape:cy="161.43753748275" inkscape:document-units="px" inkscape:current-layer="layer1" showgrid="false" units="px" inkscape:window-width="1366" inkscape:window-height="716" inkscape:window-x="-8" inkscape:window-y="-8" inkscape:window-maximized="1"/>
  <metadata id="metadata2221">
    <rdf:RDF>
      <cc:Work rdf:about="">
        <dc:format>image/svg+xml</dc:format>
        <dc:type rdf:resource="http://purl.org/dc/dcmitype/StillImage"/>
        <dc:title/>
      </cc:Work>
    </rdf:RDF>
  </metadata>
  <g inkscape:label="Layer 1" inkscape:groupmode="layer" id="layer1" transform="translate(0,-216.302075508547)">
    <g id="g2131" transform="matrix(0.3049999904064256,0,0,0.3049999904064252,-136.4991929676096,338.4033844083301)" style="fill:#de2910;fill-opacity:1;stroke-width:3.2786884308;stroke:none">
      <path inkscape:connector-curvature="0" id="path2125" d="m 487.3050355086297,-144.2040960403828 a 22.2898063659668,22.2898063659668 0 0 1 -22.4106886560921,7.9023606851386 22.2898063659668,22.2898063659668 0 0 1 -16.8030771520274,-16.8030612883881 22.2898063659668,22.2898063659668 0 0 1 7.9023395273881,-22.4106961166358 l 51.8614918793776,-41.0570311913019 20.5069293452818,20.506929345267 z" style="opacity:1;fill:#de2910;fill-opacity:1;stroke:none;stroke-width:0.8674862981;stroke-linecap:round;stroke-linejoin:round;stroke-miterlimit:4;stroke-dasharray:none;stroke-dashoffset:0;stroke-opacity:1;paint-order:normal"/>
      <path inkscape:connector-curvature="0" id="path2127" d="m 705.1107404169074,-174.0622912655019 a 22.14623451232909,22.14623451232909 0 0 1 6.3180096353268,21.6637660774594 22.14623451232909,22.14623451232909 0 0 1 -15.9567603998405,15.9567479128124 22.14623451232909,22.14623451232909 0 0 1 -21.6637611332667,-6.3180265884006 l -169.9805056453456,-181.5700972712776 19.7129115049292,-19.7129115049142 z" style="opacity:1;fill:#de2910;fill-opacity:1;stroke:none;stroke-width:0.8674862981;stroke-linecap:round;stroke-linejoin:round;stroke-miterlimit:4;stroke-dasharray:none;stroke-dashoffset:0;stroke-opacity:1;paint-order:normal"/>
      <path inkscape:connector-curvature="0" id="path2123" d="m 447.5383516757444,-307.7280273638123 79.8234421538937,-79.8234421338414 50.2259950361165,23.8573446550694 -93.007757886909,93.0077578869092 z" style="fill:#de2910;fill-opacity:1;stroke:none;stroke-width:0.8674862981px;stroke-linecap:butt;stroke-linejoin:miter;stroke-opacity:1"/>
      <path style="opacity:1;fill:#de2910;fill-opacity:1;stroke:none;stroke-width:0.8674862981;stroke-linecap:round;stroke-linejoin:round;stroke-miterlimit:4;stroke-dasharray:none;stroke-dashoffset:0;stroke-opacity:1;paint-order:normal" inkscape:transform-center-x="11.40272962819006" inkscape:transform-center-y="8.033813638977106" d="m 494.7183415341706,-206.1673626101833 c -3.4314592551437,-3.8669419423531 -4.4426614957056,-9.3146552135908 -2.6275317772315,-14.1554667891793 1.815129718474,-4.8408115755884 6.1588348952162,-8.2806277326636 11.2867860898632,-8.9380995195614 5.1279511946459,-0.6574717868977 10.1989518864786,1.5752534179479 13.1766920419903,5.8016839240086 21.0311449474437,29.8501169177316 60.0627539571105,40.9424909908011 93.6488459524572,26.6141143359329 33.5860919953475,-14.3283766548681 52.5906708409526,-50.1799343392518 45.5977485806303,-86.0188417202921 -9.2631281349164,-47.4737711828446 -36.474162116149,-89.5479476251564 -75.9711003007514,-117.4682120670928 48.9837460584718,15.6747294861189 88.4976684975067,52.2591468058953 107.892269592864,99.8929310748515 21.3533653121605,52.4445742242751 -1.5752201225386,112.4653047823596 -52.4550015799168,137.3168957537254 -50.8797814573775,24.8515909713658 -112.3142467074349,6.0369148316567 -140.5515211430945,-43.0447524933624 z" id="path2129" inkscape:connector-curvature="0" sodipodi:nodetypes="csscsscsscc"/>
    </g>
  </g>
</svg>